<?xml version="1.0" encoding="utf-8"?>
<!-- Svg Vector Icons : http://www.onlinewebfonts.com/icon -->
<!DOCTYPE svg PUBLIC "-//W3C//DTD SVG 1.1//EN" "http://www.w3.org/Graphics/SVG/1.1/DTD/svg11.dtd">
<svg version="1.1" xmlns="http://www.w3.org/2000/svg" xmlns:xlink="http://www.w3.org/1999/xlink" x="0px" y="0px" viewBox="0 0 256 256" enable-background="new 0 0 256 256" xml:space="preserve">
<metadata> Svg Vector Icons : http://www.onlinewebfonts.com/icon </metadata>
<g> <path fill="#000000" d="M130.4,143c33.2,0,60.2-26.9,60.2-60.2c0-33.2-26.9-60.2-60.2-60.2c-33.2,0-60.2,26.9-60.2,60.2 C70.2,116.1,97.1,143,130.4,143z M93.1,148.2c-23.5-13.4-37.9-38.3-37.9-65.3c0-41.6,33.7-75.2,75.2-75.2 c41.6,0,75.2,33.7,75.2,75.2c0,27.7-15.2,53.2-39.7,66.3c40.8,13.6,71.2,48,79.9,90.1c0.9,4.1-1.8,8.1-5.9,9 c-0.5,0.1-1,0.2-1.5,0.2c-3.6,0-6.7-2.6-7.4-6.2c-9.8-48-52.2-84.1-103-84.1c-50.9,0-93.2,36.1-103.1,84.1 c-0.7,3.6-3.8,6.2-7.4,6.2c-4.2,0-7.6-3.4-7.5-7.6c0-0.5,0.1-1,0.2-1.5C19,196,50.8,161.1,93.1,148.2z"/></g>
</svg>