<?xml version="1.0" encoding="utf-8"?>
<!-- Svg Vector Icons : http://www.onlinewebfonts.com/icon -->
<!DOCTYPE svg PUBLIC "-//W3C//DTD SVG 1.1//EN" "http://www.w3.org/Graphics/SVG/1.1/DTD/svg11.dtd">
<svg version="1.1" xmlns="http://www.w3.org/2000/svg" xmlns:xlink="http://www.w3.org/1999/xlink" x="0px" y="0px" viewBox="0 0 256 256" enable-background="new 0 0 256 256" xml:space="preserve">
<metadata> Svg Vector Icons : http://www.onlinewebfonts.com/icon </metadata>
<g> <path fill="#000000" d="M128,10C62.9,10,10,62.9,10,128c0,30.7,11.7,59.7,32.9,81.8C65.1,232.8,96,246,128,246 c12.5,0,24.9-2,36.8-5.9c12.9-4.2,25.1-10.7,35.8-19c9.1-7.1,17.1-15.5,23.8-24.9c6.9-9.6,12.3-20.3,15.9-31.6 c3.7-11.4,5.6-23.4,5.7-35.3c0-0.4,0-0.9,0-1.3C246,62.9,193.1,10,128,10z M203,204.6c-8.7,8.5-18.8,15.6-29.9,20.8 c-34.5,16-75.5,12.2-106.6-9.5c-6.1-4.2-11.7-9.1-16.7-14.5c12.1-18.5,30.1-31.8,50.9-37.9c-15.8-9.3-26.4-26.5-26.4-46.2 c0-29.6,24.1-53.6,53.6-53.6c29.6,0,53.6,24.1,53.6,53.6c0,20.1-11.1,37.6-27.5,46.8c20.7,6.5,38.5,20.4,50,39.5 C203.7,203.9,203.3,204.2,203,204.6z"/></g>
</svg>